<svg width="14" height="14" viewBox="0 0 14 14" fill="none" xmlns="http://www.w3.org/2000/svg">
<path fill-rule="evenodd" clip-rule="evenodd" d="M3.38916 0.787109C2.69871 0.787109 2.03652 1.06132 1.5482 1.54945C1.05989 2.03758 0.785421 2.69966 0.785156 3.39011V10.3341C0.785156 11.0247 1.05951 11.6871 1.54785 12.1754C2.03619 12.6638 2.69853 12.9381 3.38916 12.9381H10.3332C11.0236 12.9378 11.6857 12.6634 12.1738 12.1751C12.6619 11.6867 12.9362 11.0246 12.9362 10.3341V3.39011C12.9359 2.69983 12.6616 2.0379 12.1735 1.5498C11.6854 1.0617 11.0234 0.787374 10.3332 0.787109H3.38916ZM11.0822 3.39411C11.0822 3.59302 11.0031 3.78379 10.8625 3.92444C10.7218 4.06509 10.5311 4.14411 10.3322 4.14411C10.1332 4.14411 9.94248 4.06509 9.80183 3.92444C9.66117 3.78379 9.58216 3.59302 9.58216 3.39411C9.58216 3.1952 9.66117 3.00443 9.80183 2.86378C9.94248 2.72313 10.1332 2.64411 10.3322 2.64411C10.5311 2.64411 10.7218 2.72313 10.8625 2.86378C11.0031 3.00443 11.0822 3.1952 11.0822 3.39411ZM6.86216 4.78211C6.31051 4.78211 5.78145 5.00125 5.39137 5.39133C5.0013 5.7814 4.78216 6.31046 4.78216 6.86211C4.78216 7.41376 5.0013 7.94282 5.39137 8.33289C5.78145 8.72297 6.31051 8.94211 6.86216 8.94211C7.41381 8.94211 7.94286 8.72297 8.33294 8.33289C8.72301 7.94282 8.94216 7.41376 8.94216 6.86211C8.94216 6.31046 8.72301 5.7814 8.33294 5.39133C7.94286 5.00125 7.41381 4.78211 6.86216 4.78211ZM3.78116 6.86211C3.78116 6.04524 4.10566 5.26183 4.68327 4.68422C5.26088 4.10661 6.04429 3.78211 6.86116 3.78211C7.67802 3.78211 8.46143 4.10661 9.03905 4.68422C9.61666 5.26183 9.94116 6.04524 9.94116 6.86211C9.94116 7.67898 9.61666 8.46239 9.03905 9.04C8.46143 9.61761 7.67802 9.94211 6.86116 9.94211C6.04429 9.94211 5.26088 9.61761 4.68327 9.04C4.10566 8.46239 3.78116 7.67898 3.78116 6.86211Z" fill="white"/>
</svg>
