<svg width="20" height="20" viewBox="0 0 20 20" fill="none" xmlns="http://www.w3.org/2000/svg">
<path d="M17.0413 17.0413H14.0778V12.4004C14.0778 11.2937 14.0581 9.8691 12.5366 9.8691C10.9931 9.8691 10.7569 11.0748 10.7569 12.3198V17.0409H7.79353V7.49741H10.6384V8.80161H10.6783C11.2575 7.81122 12.3385 7.21749 13.4852 7.26008C16.4887 7.26008 17.0425 9.23565 17.0425 11.8059L17.0413 17.0413ZM4.44979 6.19285C3.50637 6.19285 2.7297 5.41663 2.7297 4.47321C2.7297 3.52979 3.50601 2.75348 4.44943 2.75348C5.39276 2.75348 6.16898 3.52961 6.16916 4.47285C6.16916 5.41609 5.39303 6.19276 4.44979 6.19285ZM5.93148 17.0413H2.96498V7.49741H5.93148V17.0413ZM18.5186 0.00150184H1.47578C0.675763 -0.00753336 0.00975086 0.643 0 1.44302V18.5566C0.00939303 19.357 0.675316 20.0083 1.47578 19.9997H18.5186C19.321 20.0098 19.9893 19.3587 20 18.5566V1.44185C19.9893 0.640137 19.3201 -0.0103072 18.5186 0.000248763V0.00150184Z" fill="#0A66C2"/>
<path d="M17.0413 17.0413H14.0778V12.4004C14.0778 11.2938 14.0581 9.86916 12.5366 9.86916C10.9931 9.86916 10.7569 11.0749 10.7569 12.3198V17.041H7.79353V7.49747H10.6384V8.80167H10.6783C11.2575 7.81128 12.3385 7.21755 13.4852 7.26014C16.4887 7.26014 17.0425 9.23571 17.0425 11.8059L17.0413 17.0413ZM4.44979 6.19291C3.50637 6.19291 2.7297 5.41669 2.7297 4.47327C2.7297 3.52985 3.50601 2.75354 4.44943 2.75354C5.39276 2.75354 6.16898 3.52967 6.16916 4.47291C6.16916 5.41615 5.39303 6.19282 4.44979 6.19291ZM5.93148 17.0413H2.96498V7.49747H5.93148V17.0413Z" fill="white"/>
</svg>
