<svg width="16" height="16" viewBox="0 0 16 16" fill="none" xmlns="http://www.w3.org/2000/svg">
<g clip-path="url(#clip0_2001_4076)">
<path d="M5.026 15C11.064 15 14.367 9.99696 14.367 5.66596C14.3683 5.52529 14.3663 5.38463 14.361 5.24396C15.0038 4.7782 15.5588 4.20191 16 3.54196C15.3991 3.80623 14.7626 3.98076 14.111 4.05996C14.7976 3.64967 15.3118 3.00397 15.558 2.24296C14.9133 2.62568 14.2072 2.89397 13.471 3.03596C12.9762 2.50898 12.3214 2.15988 11.6081 2.04272C10.8948 1.92556 10.1627 2.04688 9.52534 2.3879C8.88796 2.72891 8.38081 3.27059 8.08245 3.92902C7.78409 4.58745 7.71118 5.32589 7.875 6.02996C6.56968 5.96482 5.29265 5.62587 4.12683 5.03513C2.96101 4.44438 1.93247 3.61504 1.108 2.60096C0.689581 3.3241 0.56195 4.17935 0.751007 4.99314C0.940063 5.80694 1.43165 6.51833 2.126 6.98296C1.60541 6.96614 1.09619 6.82633 0.64 6.57496V6.61996C0.641273 7.37734 0.90382 8.11109 1.38332 8.69735C1.86283 9.28362 2.52992 9.68649 3.272 9.83796C2.99027 9.91561 2.69923 9.9543 2.407 9.95296C2.20092 9.9551 1.99517 9.936 1.793 9.89596C2.00239 10.5483 2.41078 11.1186 2.96084 11.527C3.5109 11.9354 4.17502 12.1613 4.86 12.173C3.6961 13.0859 2.25925 13.5814 0.78 13.58C0.519298 13.5819 0.258746 13.5669 0 13.535C1.50142 14.4924 3.24527 15.0007 5.026 15Z" fill="white"/>
</g>
<defs>
<clipPath id="clip0_2001_4076">
<rect width="16" height="16" fill="white"/>
</clipPath>
</defs>
</svg>
