<svg width="22" height="18" viewBox="0 0 22 18" fill="none" xmlns="http://www.w3.org/2000/svg">
<path d="M6.91884 17.9398C15.2213 17.9398 19.7612 11.0616 19.7612 5.09735C19.7612 4.90199 19.7573 4.7075 19.7485 4.5139C20.6298 3.87678 21.3959 3.08169 22 2.1766C21.1913 2.53608 20.3209 2.77809 19.4079 2.88721C20.3399 2.3284 21.0553 1.44443 21.3928 0.39062C20.5207 0.907625 19.5549 1.28339 18.5266 1.48623C17.7029 0.608864 16.5303 0.0601807 15.2319 0.0601807C12.7392 0.0601807 10.7178 2.08156 10.7178 4.5733C10.7178 4.92751 10.7574 5.27203 10.8349 5.60247C7.08341 5.41371 3.75698 3.61762 1.531 0.886509C1.14336 1.55356 0.919836 2.3284 0.919836 3.15517C0.919836 4.72115 1.71668 6.10364 2.92845 6.91237C2.18793 6.88949 1.49228 6.6862 0.884194 6.34784C0.883529 6.36678 0.883531 6.38524 0.883531 6.40548C0.883531 8.59142 2.43938 10.4166 4.50477 10.8302C4.12548 10.9336 3.7264 10.989 3.31455 10.989C3.02415 10.989 2.74123 10.9604 2.46622 10.9076C3.04087 12.7011 4.70717 14.0061 6.68279 14.0426C5.13793 15.2535 3.19179 15.9747 1.07669 15.9747C0.712808 15.9747 0.353324 15.954 0 15.9122C1.99762 17.1926 4.36968 17.9398 6.91907 17.9398" fill="#1DA1F2"/>
</svg>
